<svg width="294" height="65" viewBox="0 0 294 65" fill="none" xmlns="http://www.w3.org/2000/svg">
<g clip-path="url(#clip0_7_86)">
<path d="M0 0.897705H9.01199V55.4117H40.9604V63.8686H0V0.897705Z" fill="#141615"/>
<path d="M45.463 63.8652L70.5112 0.897705H78.9824L104.031 63.8652H94.2986L88.6213 49.0218H60.8688L55.1915 63.8652H45.463ZM64.2035 40.5683H85.2901L75.8268 15.9199H73.6668L64.2035 40.5683Z" fill="#141615"/>
<path d="M104.926 32.3831C104.926 12.4119 116.191 0 134.301 0C147.006 0 156.824 5.84656 161.244 16.4598L152.684 20.236C150.341 13.0413 143.22 8.45344 134.301 8.45344C121.596 8.45344 114.297 17.1786 114.297 32.3831C114.297 47.5841 121.596 56.3093 134.301 56.3093C143.22 56.3093 150.341 51.7214 152.684 44.5267L161.244 48.3029C156.828 58.9161 147.006 64.7661 134.301 64.7661C116.191 64.7661 104.926 52.3508 104.926 32.3831Z" fill="#141615"/>
<path d="M170.697 0.897705H213.949V9.35458H179.709V27.2554H207.641V35.7123H179.709V55.4117H213.949V63.8686H170.697V0.897705Z" fill="#141615"/>
<path d="M222.954 0.897705H246.651C263.049 0.897705 277.015 11.4215 277.015 32.3832C277.015 53.3414 263.049 63.8686 246.651 63.8686H222.954V0.897705ZM247.554 55.4117C258.636 55.4117 267.648 47.4948 267.648 32.3832C267.648 17.2715 258.636 9.35458 247.554 9.35458H231.966V55.4117H247.554Z" fill="#141615"/>
<path d="M285.776 64.914C290.148 64.914 293.692 61.3756 293.692 57.0108C293.692 52.646 290.148 49.1077 285.776 49.1077C281.404 49.1077 277.859 52.646 277.859 57.0108C277.859 61.3756 281.404 64.914 285.776 64.914Z" fill="#141615"/>
</g>
<defs>
<clipPath id="clip0_7_86">
<rect width="293.854" height="65" fill="white"/>
</clipPath>
</defs>
</svg>
