<svg width="178" height="85" viewBox="0 0 178 85" fill="none" xmlns="http://www.w3.org/2000/svg">
<path fill-rule="evenodd" clip-rule="evenodd" d="M157.463 43.3169C157.463 33.5372 152.746 25.8203 143.732 25.8203C134.68 25.8203 129.203 33.5372 129.203 43.2405C129.203 54.7394 135.669 60.5462 144.949 60.5462C149.475 60.5462 152.898 59.5147 155.485 58.063V50.4226C152.898 51.7214 149.932 52.5237 146.166 52.5237C142.477 52.5237 139.206 51.2248 138.788 46.7169H157.386C157.386 46.2203 157.463 44.2338 157.463 43.3169ZM138.674 39.6877C138.674 35.3709 141.298 33.5754 143.694 33.5754C146.014 33.5754 148.486 35.3709 148.486 39.6877H138.674Z" fill="#635BFF"/>
<path fill-rule="evenodd" clip-rule="evenodd" d="M114.52 25.8203C110.792 25.8203 108.396 27.5776 107.065 28.8001L106.571 26.4315H98.2031V70.9754L107.712 68.9507L107.75 58.1394C109.119 59.1327 111.135 60.5462 114.482 60.5462C121.29 60.5462 127.489 55.045 127.489 42.9349C127.451 31.8563 121.176 25.8203 114.52 25.8203ZM112.238 52.1417C109.994 52.1417 108.663 51.3394 107.75 50.3462L107.712 36.1731C108.701 35.0653 110.07 34.3012 112.238 34.3012C115.699 34.3012 118.095 38.1978 118.095 43.2023C118.095 48.3214 115.737 52.1417 112.238 52.1417Z" fill="#635BFF"/>
<path fill-rule="evenodd" clip-rule="evenodd" d="M85.1211 23.568L94.6677 21.5051V13.75L85.1211 15.7747V23.568Z" fill="#635BFF"/>
<path d="M94.6677 26.4688H85.1211V59.8957H94.6677V26.4688Z" fill="#635BFF"/>
<path fill-rule="evenodd" clip-rule="evenodd" d="M74.8903 29.3L74.2818 26.473H66.0664V59.9H75.575V37.246C77.819 34.3045 81.6224 34.8393 82.8014 35.2595V26.473C81.5844 26.0146 77.1344 25.1741 74.8903 29.3Z" fill="#635BFF"/>
<path fill-rule="evenodd" clip-rule="evenodd" d="M55.8731 18.1797L46.5927 20.1662L46.5547 50.7662C46.5547 56.4201 50.7765 60.5842 56.4055 60.5842C59.5243 60.5842 61.8064 60.0111 63.0615 59.3235V51.5685C61.8444 52.0651 55.835 53.8224 55.835 48.1684V34.6067H63.0615V26.4696H55.835L55.8731 18.1797Z" fill="#635BFF"/>
<path fill-rule="evenodd" clip-rule="evenodd" d="M30.1617 36.1731C30.1617 34.6832 31.3788 34.1102 33.3946 34.1102C36.2852 34.1102 39.9365 34.9889 42.8271 36.5551V27.5776C39.6703 26.3169 36.5515 25.8203 33.3946 25.8203C25.6737 25.8203 20.5391 29.8698 20.5391 36.6316C20.5391 47.1754 34.9921 45.4945 34.9921 50.0405C34.9921 51.7978 33.4707 52.3709 31.3408 52.3709C28.1839 52.3709 24.1523 51.072 20.9574 49.3147V58.4068C24.4946 59.9349 28.0698 60.5844 31.3408 60.5844C39.2519 60.5844 44.6908 56.6495 44.6908 49.8113C44.6527 38.4271 30.1617 40.4518 30.1617 36.1731Z" fill="#635BFF"/>
</svg>
