<svg width="356" height="86" viewBox="0 0 356 86" fill="none" xmlns="http://www.w3.org/2000/svg">
<path d="M8.87006 30.74H0.680054V19.29H8.87006V17.88C8.87006 6.52 15.92 0 27.9 0C29.4 0 31.3401 0.18 32.5701 0.44V11.72C31.4201 11.54 30.5401 11.46 29.6601 11.46C24.7301 11.46 22.0801 13.66 22.0801 17.89V19.3H32.4701V30.75H22.0801V67.39H8.87006V30.74ZM37.8501 1.76H51.0601V67.39H37.8501V1.76Z" fill="white"/>
<path d="M59.7001 1.75977H72.9101V14.9698H59.7001V1.75977ZM59.7001 19.2898H72.9101V67.3898H59.7001V19.2898Z" fill="white"/>
<path d="M132.99 43.34C132.99 57.35 122.42 68.44 108.5 68.44C102.86 68.44 98.02 66.59 94.76 63.6V85.01H81.55V19.29H93.8801V24.31C97.2301 20.43 102.42 18.23 108.59 18.23C122.24 18.23 132.99 29.24 132.99 43.34ZM119.34 43.34C119.34 35.68 114.14 30.13 106.92 30.13C99.7 30.13 94.76 35.59 94.76 43.34C94.76 51.09 99.78 56.55 106.92 56.55C114.06 56.55 119.34 51 119.34 43.34Z" fill="white"/>
<path d="M169.38 18.7598V30.2098H163.04C156.61 30.2098 152.21 34.3498 152.21 41.4898V67.3898H139V19.2898H151.33V26.5098C153.8 20.5198 158.46 18.7598 164.37 18.7598H169.39H169.38Z" fill="white"/>
<path d="M171.85 43.34C171.85 28.8 183.3 18.23 197.57 18.23C211.84 18.23 223.29 28.8 223.29 43.34C223.29 57.88 211.84 68.44 197.57 68.44C183.3 68.44 171.85 57.87 171.85 43.34ZM209.64 43.34C209.64 35.68 204.8 30.13 197.57 30.13C190.34 30.13 185.5 35.68 185.5 43.34C185.5 51 190.34 56.55 197.57 56.55C204.8 56.55 209.64 51.09 209.64 43.34Z" fill="white"/>
<path d="M226.64 43.34C226.64 28.8 238.09 18.23 252.36 18.23C266.63 18.23 278.08 28.8 278.08 43.34C278.08 57.88 266.63 68.44 252.36 68.44C238.09 68.44 226.64 57.87 226.64 43.34ZM264.43 43.34C264.43 35.68 259.59 30.13 252.36 30.13C245.13 30.13 240.29 35.68 240.29 43.34C240.29 51 245.13 56.55 252.36 56.55C259.59 56.55 264.43 51.09 264.43 43.34Z" fill="white"/>
<path d="M355.08 36.47V67.39H341.87V39.29C341.87 33.39 338.7 30.13 334.03 30.13C329.36 30.13 326.19 33.39 326.19 39.29V67.39H312.98V39.29C312.98 33.39 309.81 30.13 305.14 30.13C300.47 30.13 297.3 33.39 297.3 39.29V67.39H284.09V19.29H296.42V25.1C298.71 20.52 303.2 18.23 309.02 18.23C315.19 18.23 320.3 20.78 323.38 25.63C326.11 21.23 331.48 18.23 338 18.23C348.04 18.23 355.09 25.36 355.09 36.46L355.08 36.47Z" fill="white"/>
</svg>
