<svg width="4610" height="850" viewBox="0 0 4610 850" fill="none" xmlns="http://www.w3.org/2000/svg">
<g clip-path="url(#clip0_1706_2889)">
<path d="M1148.5 307.347H1066.61V192.867H1148.5V178.769C1148.5 65.1887 1218.99 0 1338.77 0C1353.76 0 1373.16 1.79969 1385.46 4.39924V117.18C1373.96 115.38 1365.16 114.58 1356.36 114.58C1307.07 114.58 1280.58 136.576 1280.58 178.869V192.967H1384.46V307.447H1280.58V673.783H1148.5V307.347V307.347ZM1438.25 17.5969H1570.33V673.783H1438.25V17.5969Z" fill="white"/>
<path d="M1656.71 17.5969H1788.79V149.674H1656.71V17.5969ZM1656.71 192.867H1788.79V673.783H1656.71V192.867V192.867Z" fill="white"/>
<path d="M2389.48 433.325C2389.48 573.4 2283.8 684.281 2144.63 684.281C2088.23 684.281 2039.84 665.784 2007.25 635.89V849.952H1875.17V192.866H1998.45V243.058C2031.94 204.264 2083.84 182.268 2145.52 182.268C2282 182.268 2389.48 292.349 2389.48 433.325V433.325ZM2253.01 433.325C2253.01 356.738 2201.02 301.248 2128.83 301.248C2056.64 301.248 2007.25 355.838 2007.25 433.325C2007.25 510.811 2057.44 565.402 2128.83 565.402C2200.22 565.402 2253.01 509.911 2253.01 433.325Z" fill="white"/>
<path d="M2753.32 187.568V302.048H2689.93C2625.64 302.048 2581.65 343.44 2581.65 414.828V673.783H2449.57V192.867H2572.85V265.054C2597.55 205.164 2644.14 187.568 2703.23 187.568H2753.42H2753.32Z" fill="white"/>
<path d="M2778.02 433.325C2778.02 287.95 2892.5 182.268 3035.17 182.268C3177.85 182.268 3292.33 287.95 3292.33 433.325C3292.33 578.7 3177.85 684.281 3035.17 684.281C2892.5 684.281 2778.02 578.6 2778.02 433.325V433.325ZM3155.85 433.325C3155.85 356.738 3107.46 301.248 3035.17 301.248C2962.88 301.248 2914.49 356.738 2914.49 433.325C2914.49 509.911 2962.88 565.402 3035.17 565.402C3107.46 565.402 3155.85 510.811 3155.85 433.325Z" fill="white"/>
<path d="M3325.82 433.325C3325.82 287.95 3440.3 182.268 3582.98 182.268C3725.65 182.268 3840.13 287.95 3840.13 433.325C3840.13 578.7 3725.65 684.281 3582.98 684.281C3440.3 684.281 3325.82 578.6 3325.82 433.325V433.325ZM3703.65 433.325C3703.65 356.738 3655.26 301.248 3582.98 301.248C3510.69 301.248 3462.3 356.738 3462.3 433.325C3462.3 509.911 3510.69 565.402 3582.98 565.402C3655.26 565.402 3703.65 510.811 3703.65 433.325Z" fill="white"/>
<path d="M4610 364.637V673.783H4477.92V392.832C4477.92 333.842 4446.23 301.248 4399.54 301.248C4352.84 301.248 4321.15 333.842 4321.15 392.832V673.783H4189.07V392.832C4189.07 333.842 4157.38 301.248 4110.69 301.248C4063.99 301.248 4032.3 333.842 4032.3 392.832V673.783H3900.22V192.866H4023.5V250.956C4046.4 205.164 4091.29 182.268 4149.48 182.268C4211.17 182.268 4262.26 207.764 4293.05 256.255C4320.35 212.263 4374.04 182.268 4439.23 182.268C4539.61 182.268 4610.1 253.556 4610.1 364.537L4610 364.637Z" fill="white"/>
<path d="M536.804 366.736L388.63 648.388C382.531 659.886 390.929 673.783 403.927 673.783H634.087C640.486 673.783 646.385 670.184 649.384 664.585L800.658 377.135C806.757 365.637 798.359 351.739 785.361 351.739H561.8C551.401 351.739 541.803 357.538 536.904 366.736H536.804Z" fill="white"/>
<path d="M494.013 249.257H859.15C865.449 249.257 871.148 245.857 874.247 240.458L984.628 43.3925C991.127 31.8944 982.728 17.5969 969.531 17.5969H391.531C361.536 17.5969 334.041 33.9941 319.743 60.3895L2.09853 648.288C-4.1004 659.786 4.19816 673.783 17.2959 673.783H248.356C254.755 673.783 260.654 670.284 263.653 664.585L478.716 258.455C481.715 252.756 487.614 249.257 494.013 249.257V249.257Z" fill="white"/>
</g>
<defs>
<clipPath id="clip0_1706_2889">
<rect width="4610" height="849.953" fill="white"/>
</clipPath>
</defs>
</svg>
