<svg width="980" height="652" viewBox="0 0 980 652" fill="none" xmlns="http://www.w3.org/2000/svg">
<g clip-path="url(#clip0_1721_2889)">
<path d="M533.093 346.723L385.944 626.426C379.887 637.844 388.227 651.645 401.135 651.645H629.703C636.057 651.645 641.915 648.071 644.894 642.511L795.121 357.05C801.178 345.631 792.837 331.83 779.93 331.83H557.915C547.589 331.83 538.057 337.589 533.192 346.723H533.093Z" fill="white"/>
<path d="M490.595 230.057H853.205C859.46 230.057 865.12 226.681 868.198 221.319L977.815 25.617C984.268 14.1986 975.928 0 962.822 0H388.822C359.034 0 331.729 16.2837 317.531 42.4965L2.08403 626.227C-4.072 637.645 4.16914 651.546 17.1762 651.546H246.637C252.992 651.546 258.85 648.071 261.829 642.411L475.403 239.191C478.382 233.532 484.24 230.057 490.595 230.057V230.057Z" fill="white"/>
</g>
<defs>
<clipPath id="clip0_1721_2889">
<rect width="980" height="651.645" fill="white"/>
</clipPath>
</defs>
</svg>
