<?xml version="1.0" encoding="UTF-8"?><svg id="Layer_1" xmlns="http://www.w3.org/2000/svg" viewBox="0 0 461.08 85.01"><defs><style>.cls-1{fill:#05002d;}.cls-2{fill:#3162ff;}</style></defs><g><path class="cls-1" d="M114.87,30.74h-8.19v-11.45h8.19v-1.41c0-11.36,7.05-17.88,19.03-17.88,1.5,0,3.44,.18,4.67,.44V11.72c-1.15-.18-2.03-.26-2.91-.26-4.93,0-7.58,2.2-7.58,6.43v1.41h10.39v11.45h-10.39v36.64h-13.21V30.74ZM143.85,1.76h13.21V67.39h-13.21V1.76Z"/><path class="cls-1" d="M165.7,1.76h13.21V14.97h-13.21V1.76Zm0,17.53h13.21v48.1h-13.21V19.29Z"/><path class="cls-1" d="M238.99,43.34c0,14.01-10.57,25.1-24.49,25.1-5.64,0-10.48-1.85-13.74-4.84v21.41h-13.21V19.29h12.33v5.02c3.35-3.88,8.54-6.08,14.71-6.08,13.65,0,24.4,11.01,24.4,25.11Zm-13.65,0c0-7.66-5.2-13.21-12.42-13.21s-12.16,5.46-12.16,13.21,5.02,13.21,12.16,13.21,12.42-5.55,12.42-13.21Z"/><path class="cls-1" d="M275.38,18.76v11.45h-6.34c-6.43,0-10.83,4.14-10.83,11.28v25.9h-13.21V19.29h12.33v7.22c2.47-5.99,7.13-7.75,13.04-7.75h5.02Z"/><path class="cls-1" d="M277.85,43.34c0-14.54,11.45-25.11,25.72-25.11s25.72,10.57,25.72,25.11-11.45,25.1-25.72,25.1-25.72-10.57-25.72-25.1Zm37.79,0c0-7.66-4.84-13.21-12.07-13.21s-12.07,5.55-12.07,13.21,4.84,13.21,12.07,13.21,12.07-5.46,12.07-13.21Z"/><path class="cls-1" d="M332.64,43.34c0-14.54,11.45-25.11,25.72-25.11s25.72,10.57,25.72,25.11-11.45,25.1-25.72,25.1-25.72-10.57-25.72-25.1Zm37.79,0c0-7.66-4.84-13.21-12.07-13.21s-12.07,5.55-12.07,13.21,4.84,13.21,12.07,13.21,12.07-5.46,12.07-13.21Z"/><path class="cls-1" d="M461.08,36.47v30.92h-13.21v-28.1c0-5.9-3.17-9.16-7.84-9.16s-7.84,3.26-7.84,9.16v28.1h-13.21v-28.1c0-5.9-3.17-9.16-7.84-9.16s-7.84,3.26-7.84,9.16v28.1h-13.21V19.29h12.33v5.81c2.29-4.58,6.78-6.87,12.6-6.87,6.17,0,11.28,2.55,14.36,7.4,2.73-4.4,8.1-7.4,14.62-7.4,10.04,0,17.09,7.13,17.09,18.23Z"/></g><g><path class="cls-2" d="M53.69,36.68l-14.82,28.17c-.61,1.15,.23,2.54,1.53,2.54h23.02c.64,0,1.23-.36,1.53-.92l15.13-28.75c.61-1.15-.23-2.54-1.53-2.54h-22.36c-1.04,0-2,.58-2.49,1.5Z"/><path class="cls-2" d="M49.41,24.93h36.52c.63,0,1.2-.34,1.51-.88l11.04-19.71c.65-1.15-.19-2.58-1.51-2.58H39.16c-3,0-5.75,1.64-7.18,4.28L.21,64.84c-.62,1.15,.21,2.55,1.52,2.55H24.84c.64,0,1.23-.35,1.53-.92L47.88,25.85c.3-.57,.89-.92,1.53-.92Z"/></g></svg>