<svg width="684" height="684" viewBox="0 0 684 684" fill="none" xmlns="http://www.w3.org/2000/svg">
<circle cx="176" cy="180" r="150" fill="#E3E3E3" fill-opacity="0.38"/>
<g clip-path="url(#clip0_4812_3872)">
<path d="M260.813 388.876L252.489 457.962C250.091 477.87 262.211 496.661 281.335 502.687L392.604 537.748C403.743 541.257 415.828 539.94 425.942 534.101C445.54 522.786 477.59 504.282 509.317 485.964C552.618 460.964 560.653 408.213 539.819 372.129C539.819 372.129 468.391 248.412 450.534 217.482" stroke="white" stroke-width="50" stroke-linecap="round" stroke-linejoin="round"/>
<path d="M402.356 259.04C402.356 259.04 401.053 256.783 396.404 248.73C372.594 207.491 426.721 176.241 450.531 217.48" stroke="white" stroke-width="50" stroke-linecap="round" stroke-linejoin="round"/>
<path d="M348.234 290.291C348.234 290.291 339.675 275.466 330.377 259.361C306.567 218.122 360.694 186.872 384.503 228.111C386.828 232.137 394.083 244.705 396.408 248.731C401.057 256.783 402.36 259.041 402.36 259.041" stroke="white" stroke-width="50" stroke-linecap="round" stroke-linejoin="round"/>
<path d="M294.106 321.543C294.106 321.543 279.687 296.568 268.064 276.436C244.255 235.197 298.381 203.947 322.191 245.186C322.191 245.186 328.051 255.336 330.375 259.362C339.673 275.467 348.233 290.293 348.233 290.293" stroke="white" stroke-width="50" stroke-linecap="round" stroke-linejoin="round"/>
<path d="M294.104 321.541C294.104 321.541 279.685 296.566 268.063 276.435C255.996 255.534 238.789 225.731 226.386 204.248C217.756 189.302 198.655 184.199 183.708 192.828C168.761 201.458 163.64 220.57 172.27 235.516L260.811 388.875L292.061 443.002" stroke="white" stroke-width="50" stroke-linecap="round" stroke-linejoin="round"/>
</g>
<defs>
<clipPath id="clip0_4812_3872">
<rect width="500" height="500" fill="white" transform="translate(0.496094 250.494) rotate(-30)"/>
</clipPath>
</defs>
</svg>
