<svg width="684" height="684" viewBox="0 0 684 684" fill="none" xmlns="http://www.w3.org/2000/svg">
<ellipse cx="149.999" cy="150" rx="149.999" ry="150" transform="matrix(-1 0 0 1 657.508 29.5059)" fill="#E3E3E3" fill-opacity="0.38"/>
<g clip-path="url(#clip0_4814_3881)">
<path d="M422.695 388.381L431.019 457.468C433.417 477.376 421.297 496.167 402.173 502.193L290.905 537.254C279.766 540.763 267.681 539.446 257.566 533.607C237.969 522.292 205.919 503.788 174.192 485.47C130.891 460.47 122.857 407.719 143.69 371.635C143.69 371.635 215.118 247.918 232.975 216.988" stroke="white" stroke-width="50" stroke-linecap="round" stroke-linejoin="round"/>
<path d="M281.151 258.546C281.151 258.546 282.455 256.289 287.104 248.236C310.913 206.997 256.787 175.747 232.977 216.986" stroke="white" stroke-width="50" stroke-linecap="round" stroke-linejoin="round"/>
<path d="M335.278 289.796C335.278 289.796 343.837 274.972 353.135 258.867C376.945 217.628 322.818 186.378 299.009 227.617C296.684 231.643 289.429 244.21 287.104 248.237C282.455 256.289 281.152 258.546 281.152 258.546" stroke="white" stroke-width="50" stroke-linecap="round" stroke-linejoin="round"/>
<path d="M389.402 321.048C389.402 321.048 403.821 296.073 415.444 275.942C439.253 234.703 385.127 203.453 361.317 244.692C361.317 244.692 355.457 254.842 353.133 258.868C343.835 274.973 335.275 289.798 335.275 289.798" stroke="white" stroke-width="50" stroke-linecap="round" stroke-linejoin="round"/>
<path d="M389.404 321.047C389.404 321.047 403.823 296.072 415.445 275.941C427.513 255.04 444.72 225.237 457.122 203.754C465.752 188.807 484.853 183.705 499.8 192.334C514.747 200.963 519.868 220.076 511.238 235.022L422.697 388.381L391.447 442.507" stroke="white" stroke-width="50" stroke-linecap="round" stroke-linejoin="round"/>
</g>
<defs>
<clipPath id="clip0_4814_3881">
<rect width="499.999" height="500" fill="white" transform="matrix(-0.866024 -0.500001 -0.499999 0.866026 683.012 250)"/>
</clipPath>
</defs>
</svg>
